{"title":"What Still Remains 2018 1080p WEB-DL DD 5.1 x264 [MW]","magnet":"magnet:?xt=urn:btih:86a78cbdb17feea285e1576d56bfc249eb69bb04&dn=What+Still+Remains+2018+1080p+WEB-DL+DD+5.1+x264+%5BMW%5D&tr=udp%3A%2F%2Ftracker.leechers-paradise.org%3A6969&tr=udp%3A%2F%2Fzer0day.ch%3A1337&tr=udp%3A%2F%2Fopen.demonii.com%3A1337&tr=udp%3A%2F%2Ftracker.coppersurfer.tk%3A6969&tr=udp%3A%2F%2Fexodus.desync.com%3A6969","uploader":"MFreaky","categoryP":"video","categoryS":"hd___movies","size":"1950809192","seeders":"0","leechers":"0","description":" <a href=\"https://pichub.site/image/SfS49\" rel=\"nofollow\" target=\"_NEW\">https://pichub.site/image/SfS49</a> <a href=\"\nhttps://pichub.site/image/SfErR\" rel=\"nofollow\" target=\"_NEW\">\nhttps://pichub.site/image/SfErR</a> <a href=\"\nhttps://pichub.site/image/SfdQs\" rel=\"nofollow\" target=\"_NEW\">\nhttps://pichub.site/image/SfdQs</a> <a href=\"\nhttps://pichub.site/image/SfV7B\" rel=\"nofollow\" target=\"_NEW\">\nhttps://pichub.site/image/SfV7B</a> <a href=\"\nhttps://pichub.site/image/SfkZ6\" rel=\"nofollow\" target=\"_NEW\">\nhttps://pichub.site/image/SfkZ6</a> <a href=\"\nhttps://pichub.site/image/SfcNY\" rel=\"nofollow\" target=\"_NEW\">\nhttps://pichub.site/image/SfcNY</a>\r\n\r\nVideo\r\nID                                       : 1\r\nFormat                                   : AVC\r\nFormat/Info                              : Advanced Video Codec\r\nFormat profile                           : High@L4.1\r\nFormat settings                          : CABAC / 4 Ref Frames\r\nFormat settings, CABAC                   : Yes\r\nFormat settings, RefFrames               : 4 frames\r\nCodec ID                                 : V_MPEG4/ISO/AVC\r\nDuration                                 : 1 h 31 min\r\nBit rate                                 : 2 500 kb/s\r\nWidth                                    : 1 886 pixels\r\nHeight                                   : 796 pixels\r\nDisplay aspect ratio                     : 2.35:1\r\nFrame rate mode                          : Constant\r\nFrame rate                               : 23.976 (24000/1001) FPS\r\nColor space                              : YUV\r\nChroma subsampling                       : 4:2:0\r\nBit depth                                : 8 bits\r\nScan type                                : Progressive\r\nBits/(Pixel*Frame)                       : 0.069\r\nStream size                              : 1.57 GiB (86%)\r\nWriting library                          : x264 core 155 r2901 7d0ff22\r\nDefault                                  : Yes\r\nForced                                   : No\r\n\r\nAudio\r\nID                                       : 3\r\nFormat                                   : AC-3\r\nFormat/Info                              : Audio Coding 3\r\nCodec ID                                 : A_AC3\r\nDuration                                 : 1 h 31 min\r\nBit rate mode                            : Constant\r\nBit rate                                 : 384 kb/s\r\nChannel(s)                               : 6 channels\r\nChannel positions                        : Front: L C R, Side: L R, LFE\r\nSampling rate                            : 48.0 kHz\r\nFrame rate                               : 31.250 FPS (1536 SPF)\r\nBit depth                                : 16 bits\r\nCompression mode                         : Lossy\r\nStream size                              : 251 MiB (14%)\r\nLanguage                                 : English\r\nService kind                             : Complete Main\r\nDefault                                  : Yes\r\nForced                                   : No","last_updated":"2018-08-16T12:00:38.877Z","parsed":{"xt":"urn:btih:86a78cbdb17feea285e1576d56bfc249eb69bb04","dn":"What Still Remains 2018 1080p WEB-DL DD 5.1 x264 [MW]","tr":["udp://exodus.desync.com:6969","udp://open.demonii.com:1337","udp://tracker.coppersurfer.tk:6969","udp://tracker.leechers-paradise.org:6969","udp://zer0day.ch:1337"],"infoHash":"86a78cbdb17feea285e1576d56bfc249eb69bb04","infoHashBuffer":{"type":"Buffer","data":[134,167,140,189,177,127,238,162,133,225,87,109,86,191,194,73,235,105,187,4]},"name":"What Still Remains 2018 1080p WEB-DL DD 5.1 x264 [MW]","announce":["udp://exodus.desync.com:6969","udp://open.demonii.com:1337","udp://tracker.coppersurfer.tk:6969","udp://tracker.leechers-paradise.org:6969","udp://zer0day.ch:1337"],"urlList":[]}}